P2
5 3
255
254 253 252 251 250 
250 251 252 253 254 
249 248 247 246 255 
